<svg width="20" height="20" viewBox="0 0 20 20" fill="none" xmlns="http://www.w3.org/2000/svg">
<g id="Group 1437">
<path id="Union" fill-rule="evenodd" clip-rule="evenodd" d="M4.34304 14.9497C4.14778 15.145 4.14778 15.4616 4.34304 15.6568C4.5383 15.8521 4.85489 15.8521 5.05015 15.6568L9.99999 10.707L14.9498 15.6568C15.1451 15.8521 15.4617 15.8521 15.6569 15.6568C15.8522 15.4616 15.8522 15.145 15.6569 14.9497L10.7071 9.9999L15.6567 5.05025C15.852 4.85498 15.852 4.5384 15.6567 4.34314C15.4615 4.14788 15.1449 4.14788 14.9496 4.34314L9.99999 9.2928L5.05033 4.34314C4.85507 4.14788 4.53848 4.14788 4.34322 4.34314C4.14796 4.5384 4.14796 4.85498 4.34322 5.05025L9.29288 9.9999L4.34304 14.9497Z" fill="white"/>
</g>
</svg>
