<svg width="22" height="22" viewBox="0 0 22 22" fill="none" xmlns="http://www.w3.org/2000/svg">
<g id="&#232;&#175;&#173;&#232;&#168;&#128; 1" clip-path="url(#clip0_32_116)">
<path id="Vector" d="M11 0C17.0752 0 22 4.92479 22 11C22 17.0752 17.0752 22 11 22C4.92479 22 0 17.0752 0 11C0 4.92479 4.92479 0 11 0ZM14.647 11.9167H7.35304C7.55562 16.5958 9.28263 20.1667 11 20.1667C12.7169 20.1667 14.4444 16.5958 14.647 11.9167ZM5.51788 11.9167L1.87871 11.9171C2.21513 15.3024 4.39313 18.1459 7.39704 19.4315C6.31675 17.5895 5.63383 14.9123 5.51788 11.9171V11.9167ZM20.1213 11.9171H16.4821C16.3662 14.9128 15.6833 17.5895 14.603 19.431C17.6069 18.1463 19.7849 15.3024 20.1213 11.9171ZM7.3975 2.56896L7.29575 2.61296C4.34363 3.91829 2.211 6.73612 1.87917 10.0833H5.51833C5.63429 7.08767 6.31721 4.41054 7.3975 2.56896ZM11 1.83333L10.9312 1.83517C9.23725 1.92867 7.55333 5.467 7.35304 10.0833H14.647C14.4444 5.40467 12.7174 1.83333 11 1.83333ZM14.603 2.5685L14.6703 2.68537C15.7117 4.52238 16.3685 7.15 16.4817 10.0833H20.1208C19.7849 6.69763 17.6064 3.85413 14.6025 2.5685H14.603Z" fill="#C3C3C3"/>
</g>
<defs>
<clipPath id="clip0_32_116">
<rect width="22" height="22" fill="white"/>
</clipPath>
</defs>
</svg>
