<svg width="24" height="21" viewBox="0 0 24 21" fill="none" xmlns="http://www.w3.org/2000/svg">
<g id="&#233;&#146;&#177;&#229;&#140;&#133; (5) 1">
<path id="Vector" d="M18.8344 4.54662C18.8203 4.5015 18.8203 4.45638 18.7969 4.41127L18.3164 3.50892C17.8265 2.59222 16.957 1.89496 15.8625 1.54633C14.7703 1.19974 13.5914 1.24281 12.5414 1.66937L6.72654 4.04418C6.50623 4.13441 6.35154 4.29437 6.27654 4.47894H5.91794C3.52263 4.47894 1.57263 6.18519 1.57263 8.28109V15.8833C1.57263 17.9792 3.52263 19.6855 5.91794 19.6855H18.082C20.4773 19.6855 22.4273 17.9792 22.4273 15.8833V8.27904C22.425 6.41078 20.8711 4.86039 18.8344 4.54662ZM13.2773 3.04955C13.9054 2.7932 14.6109 2.76859 15.2695 2.97777C15.9258 3.18695 16.4484 3.60531 16.7414 4.15287L16.9148 4.47894H9.77341L13.2773 3.04955ZM20.6883 14.3637H16.9383C15.5015 14.3637 14.332 13.3404 14.332 12.0832C14.332 10.8261 15.5015 9.80277 16.9383 9.80277H20.6883V14.3637ZM16.9383 8.28109C14.5429 8.28109 12.5929 9.98734 12.5929 12.0832C12.5929 14.1791 14.5429 15.8854 16.9383 15.8854H20.6883C20.6883 17.1425 19.5187 18.1659 18.082 18.1659H5.91794C4.48123 18.1659 3.31169 17.1425 3.31169 15.8854V8.28109C3.31169 7.02396 4.48123 6.00062 5.91794 6.00062H18.082C19.5187 6.00062 20.6883 7.02396 20.6883 8.28109H16.9383Z" fill="#C3C3C3"/>
<path id="Vector_2" d="M15.4031 12.0832C15.4031 12.4863 15.5861 12.8728 15.9117 13.1578C16.2374 13.4428 16.6792 13.6029 17.1398 13.6029C17.6004 13.6029 18.0421 13.4428 18.3678 13.1578C18.6935 12.8728 18.8765 12.4863 18.8765 12.0832C18.8765 11.6802 18.6935 11.2937 18.3678 11.0087C18.0421 10.7237 17.6004 10.5636 17.1398 10.5636C16.6792 10.5636 16.2374 10.7237 15.9117 11.0087C15.5861 11.2937 15.4031 11.6802 15.4031 12.0832Z" fill="#C3C3C3"/>
</g>
</svg>
