<svg width="32" height="32" viewBox="0 0 32 32" fill="none" xmlns="http://www.w3.org/2000/svg">
<g id="Frame">
<path id="Vector" d="M31.3018 24.892C32.8298 27.5453 31.5418 29.7987 28.5658 29.7987H3.46184C0.404504 29.7987 -0.883497 27.6267 0.645837 24.892L13.1978 4.052C14.7258 1.316 17.2205 1.316 18.7498 4.052L31.3018 24.892ZM14.9738 9.26667V19.9333C14.9738 20.0647 14.9997 20.1947 15.05 20.316C15.1002 20.4373 15.1739 20.5476 15.2667 20.6404C15.3596 20.7333 15.4698 20.807 15.5912 20.8572C15.7125 20.9075 15.8425 20.9333 15.9738 20.9333C16.1052 20.9333 16.2352 20.9075 16.3565 20.8572C16.4778 20.807 16.5881 20.7333 16.6809 20.6404C16.7738 20.5476 16.8475 20.4373 16.8977 20.316C16.948 20.1947 16.9738 20.0647 16.9738 19.9333V9.26667C16.9738 9.00145 16.8685 8.7471 16.6809 8.55956C16.4934 8.37202 16.2391 8.26667 15.9738 8.26667C15.7086 8.26667 15.4543 8.37202 15.2667 8.55956C15.0792 8.7471 14.9738 9.00145 14.9738 9.26667ZM14.9738 23.9333V25.2667C14.9738 25.398 14.9997 25.528 15.05 25.6493C15.1002 25.7707 15.1739 25.8809 15.2667 25.9738C15.3596 26.0666 15.4698 26.1403 15.5912 26.1905C15.7125 26.2408 15.8425 26.2667 15.9738 26.2667C16.1052 26.2667 16.2352 26.2408 16.3565 26.1905C16.4778 26.1403 16.5881 26.0666 16.6809 25.9738C16.7738 25.8809 16.8475 25.7707 16.8977 25.6493C16.948 25.528 16.9738 25.398 16.9738 25.2667V23.9333C16.9738 23.6681 16.8685 23.4138 16.6809 23.2262C16.4934 23.0387 16.2391 22.9333 15.9738 22.9333C15.7086 22.9333 15.4543 23.0387 15.2667 23.2262C15.0792 23.4138 14.9738 23.6681 14.9738 23.9333Z" fill="#FAAD14"/>
</g>
</svg>
