<svg width="20" height="20" viewBox="0 0 20 20" fill="none" xmlns="http://www.w3.org/2000/svg">
<g id="&#230;&#184;&#184;&#230;&#136;&#143;">
<path id="Vector" d="M6.39704 7.25037C5.54371 7.25037 4.88 7.91407 4.88 8.7674C4.88 9.62074 5.54371 10.2844 6.39704 10.2844C7.25038 10.2844 7.91408 9.62074 7.91408 8.7674C7.91408 7.91407 7.20297 7.25037 6.39704 7.25037Z" fill="white"/>
<path id="Vector_2" d="M13.8891 3.16968C11.0411 4.56954 9.15853 4.42472 6.214 3.16968C1.04901 3.16968 -1.89552 16.8304 1.96616 16.8304C5.24858 16.8304 5.68302 12.8239 10.1239 12.8239C13.7443 12.8239 15.8682 16.7821 18.2817 16.7821C22.0469 16.7821 18.1369 3.16968 13.8891 3.16968ZM6.50363 10.4103C5.10377 10.4103 3.99354 9.30009 3.99354 7.90023C3.99354 6.50037 5.10377 5.39014 6.50363 5.39014C7.90348 5.39014 9.01372 6.50037 9.01372 7.90023C9.01372 9.30009 7.85521 10.4103 6.50363 10.4103ZM12.2479 8.04504C11.8617 7.9485 11.6686 7.56234 11.8134 7.17617C11.91 6.83827 12.2961 6.59692 12.6823 6.74173C13.0685 6.83827 13.2616 7.22444 13.1167 7.61061C13.0202 7.9485 12.634 8.14159 12.2479 8.04504ZM13.9374 9.10701C13.8408 9.4449 13.4546 9.68626 13.0685 9.54144C12.6823 9.4449 12.4892 9.05873 12.634 8.67257C12.7306 8.33467 13.1167 8.09332 13.5029 8.23813C13.8408 8.38294 14.0822 8.76911 13.9374 9.10701ZM14.0339 7.46579C13.6477 7.36925 13.4546 6.98308 13.5995 6.59692C13.696 6.25902 14.0822 6.01766 14.4683 6.16248C14.8545 6.25902 15.0476 6.64519 14.9028 7.03135C14.758 7.36925 14.3718 7.56234 14.0339 7.46579ZM15.7717 8.6243C15.6751 8.96219 15.2889 9.20355 14.9028 9.05873C14.5166 8.96219 14.3235 8.57603 14.4683 8.18986C14.5649 7.85196 14.951 7.61061 15.3372 7.75542C15.6751 7.85196 15.8682 8.23813 15.7717 8.6243Z" fill="white"/>
</g>
</svg>
