<svg width="20" height="20" viewBox="0 0 20 20" fill="none" xmlns="http://www.w3.org/2000/svg">
<g id="&#230;&#136;&#145;&#231;&#154;&#132;">
<path id="Vector" d="M11.5852 10.9379H8.41695C5.94676 10.9379 3.93689 12.9478 3.93689 15.418C3.93689 16.5807 4.88347 17.5251 6.04401 17.5251H13.956C15.1187 17.5251 16.0631 16.5785 16.0631 15.418C16.0652 12.9478 14.0554 10.9379 11.5852 10.9379ZM10.0011 10.4408C12.1968 10.4408 13.9841 8.65357 13.9841 6.45785C13.9841 4.26212 12.1968 2.47485 10.0011 2.47485C7.80534 2.47485 6.01808 4.26212 6.01808 6.45785C6.01808 8.65357 7.80534 10.4408 10.0011 10.4408ZM9.14958 7.20344H11.0255C11.2329 7.20344 11.3907 7.40011 11.3323 7.59893C11.1616 8.17164 10.63 8.5909 10.0011 8.5909C9.37218 8.5909 8.84053 8.17164 8.6698 7.59893C8.61145 7.40011 8.76922 7.20344 9.14958 7.20344Z" fill="white"/>
</g>
</svg>
