<svg width="20" height="21" viewBox="0 0 20 21" fill="none" xmlns="http://www.w3.org/2000/svg">
<g id="&#231;&#142;&#176;&#232;&#180;&#167;&#232;&#180;&#168;&#230;&#138;&#188;">
<path id="Vector" d="M11.0747 3.18198C10.2547 2.78811 8.9203 2.80169 8.10709 3.21254L3.84583 5.36354C3.03263 5.77439 3.03942 6.42801 3.85941 6.81848L8.41947 8.98816C9.23947 9.37864 10.5824 9.37864 11.4024 8.98646L15.8079 6.883C16.6279 6.49082 16.6279 5.84909 15.8096 5.45522L11.0747 3.18198ZM7.97298 9.74364L3.87809 7.86597C3.06149 7.49248 2.39429 7.99839 2.39429 8.99325V13.1866C2.39429 14.1815 3.04791 15.3376 3.84583 15.7586L8.00693 17.9504C8.80486 18.3714 9.45848 17.9012 9.45848 16.9063V12.2325C9.45678 11.2376 8.78958 10.1188 7.97298 9.74364ZM5.92383 12.1782L5.61315 12.0152C4.80504 11.5908 4.14972 10.9422 4.15482 10.5721C4.15991 10.202 4.82541 10.2462 5.63183 10.6706L5.94251 10.8336C6.75062 11.258 7.40594 11.9065 7.40085 12.2766C7.39575 12.6467 6.73195 12.6009 5.92383 12.1782ZM12.0169 9.71139C11.2054 10.1019 10.5433 11.2359 10.5433 12.2308V16.8825C10.5433 17.8774 11.1901 18.3324 11.9813 17.8944L16.1678 15.5753C16.959 15.1373 17.6058 13.9642 17.6058 12.9693V8.82348C17.6058 7.82862 16.9437 7.33459 16.1322 7.72506L12.0169 9.71139Z" fill="white"/>
</g>
</svg>
