<svg width="8" height="7" viewBox="0 0 8 7" fill="none" xmlns="http://www.w3.org/2000/svg">
<path id="Vector" d="M7.21366 1.00769C7.74136 0.795595 8.22947 1.373 7.88452 1.80144L4.6429 5.82907C4.59038 5.89399 4.5224 5.94666 4.4443 5.98293C4.3662 6.01921 4.28013 6.03809 4.19287 6.03809C4.1056 6.03809 4.01953 6.01921 3.94143 5.98293C3.86333 5.94666 3.79535 5.89399 3.74283 5.82907L0.501212 1.80144C0.156261 1.373 0.64437 0.795595 1.17284 1.00698L3.97051 2.12986C4.04072 2.15813 4.11639 2.17271 4.19287 2.17271C4.26935 2.17271 4.34502 2.15813 4.41522 2.12986L7.21366 1.00769Z" fill="white"/>
</svg>
