<svg width="15" height="15" viewBox="0 0 15 15" fill="none" xmlns="http://www.w3.org/2000/svg">
<rect width="15" height="15" rx="4" fill="#DA4354"/>
<path d="M4.7372 5.04267C4.24247 4.84383 3.78487 5.38515 4.10826 5.78681L7.14728 9.56271C7.19651 9.62358 7.26025 9.67296 7.33347 9.70696C7.40668 9.74097 7.48738 9.75867 7.56919 9.75867C7.651 9.75867 7.73169 9.74097 7.80491 9.70696C7.87812 9.67296 7.94186 9.62358 7.9911 9.56271L11.0301 5.78681C11.3535 5.38515 10.8959 4.84383 10.4005 5.042L7.77764 6.09471C7.71183 6.12121 7.64089 6.13488 7.56919 6.13488C7.49749 6.13488 7.42655 6.12121 7.36073 6.09471L4.7372 5.04267Z" fill="white"/>
</svg>
