<svg width="15" height="15" viewBox="0 0 15 15" fill="none" xmlns="http://www.w3.org/2000/svg">
<g id="Group 1595">
<rect id="Rectangle 604" width="15" height="15" rx="4" fill="#DA4354"/>
<path id="Vector" d="M10.3319 9.83648C10.8266 10.0353 11.2842 9.494 10.9608 9.09234L7.92181 5.31644C7.87258 5.25557 7.80884 5.20619 7.73562 5.17219C7.66241 5.13818 7.58172 5.12048 7.4999 5.12048C7.41809 5.12048 7.3374 5.13818 7.26418 5.17219C7.19097 5.20619 7.12723 5.25557 7.078 5.31644L4.03898 9.09234C3.71559 9.494 4.17319 10.0353 4.66863 9.83715L7.29145 8.78444C7.35726 8.75795 7.4282 8.74428 7.4999 8.74428C7.5716 8.74428 7.64254 8.75795 7.70836 8.78444L10.3319 9.83648Z" fill="white"/>
</g>
</svg>
