<svg width="15" height="15" viewBox="0 0 15 15" fill="none" xmlns="http://www.w3.org/2000/svg">
<g id="Group 1594">
<rect id="Rectangle 604" width="15" height="15" rx="4" fill="#16B17B"/>
<path id="Vector" d="M10.3319 5.16352C10.8266 4.96468 11.2842 5.506 10.9608 5.90766L7.92181 9.68356C7.87258 9.74443 7.80884 9.79381 7.73562 9.82781C7.66241 9.86182 7.58172 9.87952 7.4999 9.87952C7.41809 9.87952 7.3374 9.86182 7.26418 9.82781C7.19097 9.79381 7.12723 9.74443 7.078 9.68356L4.03898 5.90766C3.71559 5.506 4.17319 4.96468 4.66863 5.16285L7.29145 6.21556C7.35726 6.24205 7.4282 6.25572 7.4999 6.25572C7.5716 6.25572 7.64254 6.24205 7.70836 6.21556L10.3319 5.16352Z" fill="white"/>
</g>
</svg>
