<svg width="15" height="15" viewBox="0 0 15 15" fill="none" xmlns="http://www.w3.org/2000/svg">
<rect width="15" height="15" rx="4" fill="#16B17B"/>
<path d="M4.7372 9.71588C4.24247 9.91471 3.78487 9.3734 4.10826 8.97174L7.14728 5.19583C7.19651 5.13497 7.26025 5.08559 7.33347 5.05158C7.40668 5.01758 7.48738 4.99988 7.56919 4.99988C7.651 4.99988 7.73169 5.01758 7.80491 5.05158C7.87812 5.08559 7.94186 5.13497 7.9911 5.19583L11.0301 8.97174C11.3535 9.3734 10.8959 9.91471 10.4005 9.71654L7.77764 8.66384C7.71183 8.63734 7.64089 8.62367 7.56919 8.62367C7.49749 8.62367 7.42655 8.63734 7.36073 8.66384L4.7372 9.71588Z" fill="white"/>
</svg>
