<svg width="18" height="19" viewBox="0 0 18 19" fill="none" xmlns="http://www.w3.org/2000/svg">
<g id="usdt (2) 1">
<g clip-path="url(#clip0_33_6)">
<rect y="0.5" width="18" height="18" rx="8" fill="#26A17B"/>
<path id="Vector" d="M9 0.5C4.032 0.5 0 4.532 0 9.5C0 14.468 4.032 18.5 9 18.5C13.968 18.5 18 14.468 18 9.5C18 4.532 13.968 0.5 9 0.5ZM9 17.546C4.554 17.546 0.954 13.946 0.954 9.5C0.954 5.054 4.554 1.454 9 1.454C13.446 1.454 17.046 5.054 17.046 9.5C17.046 13.946 13.446 17.546 9 17.546Z" fill="white"/>
<path id="Vector_2" d="M13.9231 9.779C13.9231 8.996 11.7991 8.69 10.0891 8.59099V7.51099H12.9421V5.495H5.07606V7.51099H7.92906V8.59099C6.21906 8.68099 4.08606 8.996 4.08606 9.779C4.08606 10.562 6.21006 10.868 7.92006 10.967V14.837H10.0891V10.967C11.7991 10.868 13.9231 10.562 13.9231 9.779ZM9.00006 10.634C6.04806 10.634 4.43706 10.067 4.43706 9.779C4.43706 9.527 5.66106 9.068 7.92006 8.951V10.418H10.0891V8.951C12.3481 9.068 13.5721 9.527 13.5721 9.779C13.5631 10.067 11.9521 10.634 9.00006 10.634Z" fill="white"/>
</g>
</g>
<defs>
<clipPath id="clip0_33_6">
<rect y="0.5" width="18" height="18" rx="8" fill="white"/>
</clipPath>
</defs>
</svg>
