<svg width="14" height="14" viewBox="0 0 14 14" fill="none" xmlns="http://www.w3.org/2000/svg">
<g id="Frame" clip-path="url(#clip0_111_10)">
<path id="Vector" d="M7 0C5.11 0 3.36 0.7 2.03 2.03C0.77 3.36 0 5.11 0 6.93C0 10.85 3.08 14 6.93 14C10.85 14 14 10.92 14 7.07C14 3.15 10.92 0 7 0ZM7 13.09C3.57 13.09 0.84 10.36 0.91 6.93C0.91 3.57 3.64 0.84 7 0.91C10.36 0.91 13.09 3.64 13.09 7C13.09 10.43 10.43 13.09 7 13.09ZM6.3 5.81V8.05C6.3 8.54 6.58 8.68 7.07 8.68C7.56 8.68 7.56 8.4 7.56 8.05C7.63 6.72 7.63 5.39 7.7 4.06C7.77 3.57 7.7 3.22 7 3.22C6.3 3.22 6.23 3.5 6.23 4.06L6.3 5.81ZM7.91 10.43C7.84 10.99 7.49 11.27 7 11.27C6.51 11.27 6.16 10.99 6.09 10.5C6.02 9.94 6.37 9.66 6.93 9.66C7.49 9.59 7.77 9.94 7.91 10.43Z" fill="#FAB427"/>
</g>
<defs>
<clipPath id="clip0_111_10">
<rect width="14" height="14" fill="white"/>
</clipPath>
</defs>
</svg>
