<svg width="12" height="12" viewBox="0 0 12 12" fill="none" xmlns="http://www.w3.org/2000/svg">
<g id="&#232;&#183;&#140; 1" clip-path="url(#clip0_209_662)">
<path id="Vector" d="M2.22795 8.5384L5.80795 11.8274C6.05795 12.0574 6.44195 12.0574 6.69195 11.8274L10.3169 8.4969C10.4098 8.41171 10.4748 8.30045 10.5034 8.1777C10.532 8.05494 10.5228 7.92642 10.4771 7.80897C10.4313 7.69152 10.3512 7.59062 10.2471 7.5195C10.1431 7.44838 10.02 7.41035 9.89395 7.4104H8.94145C8.76822 7.41026 8.60212 7.34136 8.47968 7.21882C8.35723 7.09627 8.28845 6.93013 8.28845 6.7569V5.6044C8.28845 3.5334 6.24995 0.233398 2.66295 0.233398C4.08295 2.2009 4.33495 2.6739 4.33495 5.6044V6.7559C4.33495 7.1164 4.04245 7.4089 3.68195 7.4094H2.66745C2.53649 7.40937 2.40859 7.44891 2.30048 7.52282C2.19238 7.59673 2.10912 7.70157 2.06161 7.8236C2.01411 7.94564 2.00457 8.07917 2.03425 8.20672C2.06393 8.33427 2.13145 8.44988 2.22795 8.5384Z" fill="#DA4354"/>
</g>
<defs>
<clipPath id="clip0_209_662">
<rect width="12" height="12" fill="white" transform="matrix(1 0 0 -1 0 12)"/>
</clipPath>
</defs>
</svg>
