<svg width="12" height="12" viewBox="0 0 12 12" fill="none" xmlns="http://www.w3.org/2000/svg">
<g id="&#232;&#183;&#140; 1" clip-path="url(#clip0_210_2343)">
<path id="Vector" d="M2.22819 3.695L5.80819 0.406001C6.05819 0.176001 6.44219 0.176001 6.69219 0.406001L10.3172 3.7365C10.4101 3.82169 10.4751 3.93295 10.5036 4.0557C10.5322 4.17846 10.523 4.30698 10.4773 4.42443C10.4316 4.54188 10.3514 4.64278 10.2474 4.7139C10.1433 4.78502 10.0202 4.82305 9.89419 4.823H8.94169C8.76846 4.82313 8.60237 4.89204 8.47992 5.01458C8.35747 5.13712 8.28869 5.30327 8.28869 5.4765V6.629C8.28869 8.7 6.25019 12 2.66319 12C4.08319 10.0325 4.33519 9.5595 4.33519 6.629V5.4775C4.33519 5.117 4.04269 4.8245 3.68219 4.824H2.66769C2.53674 4.82402 2.40883 4.78449 2.30073 4.71058C2.19262 4.63667 2.10936 4.53183 2.06186 4.4098C2.01435 4.28776 2.00481 4.15423 2.03449 4.02668C2.06417 3.89913 2.13169 3.78352 2.22819 3.695Z" fill="#00935F"/>
</g>
<defs>
<clipPath id="clip0_210_2343">
<rect width="12" height="12" fill="white" transform="matrix(1 0 0 -1 0 12)"/>
</clipPath>
</defs>
</svg>
