<svg width="16" height="16" viewBox="0 0 16 16" fill="none" xmlns="http://www.w3.org/2000/svg">
<g id="&#231;&#187;&#145;&#229;&#174;&#154; 1">
<path id="Vector" d="M2.249 14.5C2.15056 14.5 2.05308 14.4806 1.96214 14.4429C1.8712 14.4052 1.78859 14.35 1.71902 14.2803C1.64946 14.2107 1.59431 14.128 1.55673 14.037C1.51915 13.946 1.49987 13.8485 1.5 13.75V5.75005C1.49987 5.6516 1.51915 5.5541 1.55673 5.46311C1.59431 5.37212 1.64946 5.28943 1.71902 5.21978C1.78859 5.15012 1.8712 5.09486 1.96214 5.05716C2.05308 5.01945 2.15056 5.00005 2.249 5.00005H10.749C10.9479 5.00005 11.1387 5.07906 11.2793 5.21972C11.42 5.36037 11.499 5.55113 11.499 5.75005V7.39005C11.499 7.58896 11.42 7.77972 11.2793 7.92038C11.1387 8.06103 10.9479 8.14005 10.749 8.14005C10.5501 8.14005 10.3593 8.06103 10.2187 7.92038C10.078 7.77972 9.999 7.58896 9.999 7.39005V6.50005H2.999V13H9.999V12.476C9.999 12.2771 10.078 12.0864 10.2187 11.9457C10.3593 11.8051 10.5501 11.726 10.749 11.726C10.9479 11.726 11.1387 11.8051 11.2793 11.9457C11.42 12.0864 11.499 12.2771 11.499 12.476V13.75C11.499 13.949 11.42 14.1397 11.2793 14.2804C11.1387 14.421 10.9479 14.5 10.749 14.5H2.249ZM6.249 10.5C6.15029 10.4999 6.05258 10.4803 5.96145 10.4424C5.87032 10.4045 5.78756 10.349 5.7179 10.279C5.64824 10.2091 5.59306 10.1261 5.5555 10.0348C5.51794 9.94354 5.49874 9.84575 5.499 9.74705V8.50005C5.499 8.30113 5.57802 8.11037 5.71867 7.96972C5.85932 7.82906 6.05009 7.75005 6.249 7.75005C6.44791 7.75005 6.63868 7.82906 6.77933 7.96972C6.91998 8.11037 6.999 8.30113 6.999 8.50005V9.00005H12.999V3.00005H6.999V3.50005C6.999 3.69896 6.91998 3.88972 6.77933 4.03038C6.63868 4.17103 6.44791 4.25005 6.249 4.25005C6.05009 4.25005 5.85932 4.17103 5.71867 4.03038C5.57802 3.88972 5.499 3.69896 5.499 3.50005V2.24805C5.49927 2.04922 5.57837 1.8586 5.71896 1.71801C5.85956 1.57741 6.05017 1.49831 6.249 1.49805H13.749C13.9477 1.49858 14.138 1.57779 14.2784 1.71836C14.4188 1.85893 14.4977 2.04939 14.498 2.24805V9.74805C14.4983 9.84667 14.4791 9.94438 14.4416 10.0356C14.4041 10.1268 14.349 10.2097 14.2795 10.2797C14.2099 10.3496 14.1273 10.4051 14.0362 10.4431C13.9452 10.4811 13.8476 10.5008 13.749 10.501L6.249 10.5Z" fill="white"/>
</g>
</svg>
