<svg width="22" height="22" viewBox="0 0 22 22" fill="none" xmlns="http://www.w3.org/2000/svg">
<g id="43&#233;&#157;&#153;&#233;&#159;&#179;">
<path id="Vector" d="M11.1024 14.0647V18.4479L9.26625 16.79L6.25924 14.0736C6.08973 13.9209 5.86907 13.8363 5.64022 13.8363L2.8369 13.8372L2.82782 7.97729H4.97491L3.13801 6.1524H2.82782C1.81681 6.15641 0.999435 6.97223 1 7.97641V13.8372C1 14.8431 1.82018 15.6612 2.82782 15.6612H5.28554L9.26625 19.2566L10.7267 20.5752C11.0951 20.9074 11.444 21 11.7187 21C11.9307 21 12.0998 20.9448 12.1972 20.9016C12.4213 20.8032 12.941 20.4803 12.941 19.6071V15.8914L11.1024 14.0647ZM19.2402 12.0956C19.2402 13.8741 18.7812 15.1571 18.2782 16.0352L19.5609 17.3097C20.2927 16.1889 21 14.4891 21 12.0947C21 7.23098 17.9744 5.22174 17.8449 5.13891C17.7482 5.07661 17.64 5.03406 17.5266 5.01372C17.4132 4.99339 17.2969 4.99567 17.1843 5.02045C17.0719 5.04536 16.9655 5.09219 16.8714 5.15824C16.7773 5.22429 16.6974 5.30823 16.6362 5.40521C16.3733 5.81445 16.4864 6.35774 16.8915 6.62981C16.9861 6.69346 19.2402 8.24271 19.2402 12.0956Z" fill="#C3C3C3"/>
<path id="Vector_2" d="M14.4442 8.86524C14.502 8.89534 15.8621 9.61226 15.8621 11.657C15.8621 12.1842 15.7856 12.622 15.6727 12.9895L17.0589 14.3766C17.4075 13.6953 17.6773 12.8146 17.6773 11.658C17.6773 8.40981 15.3265 7.24997 15.2271 7.20185V7.20276C15.1201 7.15218 15.0043 7.12324 14.8861 7.1176C14.7679 7.11196 14.6498 7.12973 14.5386 7.1699C14.4273 7.21007 14.3251 7.27184 14.2378 7.35167C14.1505 7.43149 14.0799 7.52779 14.0299 7.63503C13.8148 8.09001 13.9978 8.63336 14.4442 8.86524ZM8.6029 5.9161L9.19965 5.37321L11.0953 3.64917V8.40984L12.9928 10.3084V2.44489C12.9928 1.81776 12.7047 1.31697 12.2223 1.10268C11.9902 1.00039 11.3777 0.828699 10.7058 1.44054L9.20046 2.80958L7.26119 4.57342L8.6029 5.9161ZM19.0526 20C18.8102 20 18.5679 19.9074 18.3828 19.7223L2.27755 3.60843C1.90748 3.23817 1.90748 2.63834 2.27755 2.26809C2.64761 1.89783 3.24712 1.89783 3.61718 2.26809L19.7225 18.3819C20.0925 18.7522 20.0925 19.352 19.7225 19.7223C19.5374 19.9074 19.295 20 19.0526 20Z" fill="#C3C3C3"/>
</g>
</svg>
