<svg width="22" height="22" viewBox="0 0 22 22" fill="none" xmlns="http://www.w3.org/2000/svg">
<g id="&#229;&#163;&#176;&#233;&#159;&#179;">
<path id="Vector" d="M4.57031 6.21008L10.0165 2.84862C10.6476 2.45922 11.4786 2.64866 11.8732 3.2717C12.0071 3.48323 12.078 3.72765 12.078 3.97692V18.0232C12.078 18.7583 11.4746 19.3538 10.7306 19.3538C10.4781 19.3538 10.2307 19.2838 10.0165 19.1517L4.57031 15.79H2.10729C1.06549 15.79 0.220947 14.956 0.220947 13.9271V8.07297C0.220947 7.04411 1.06549 6.21008 2.10729 6.21008H4.57031ZM5.23053 7.68547C5.10171 7.76483 4.95337 7.80682 4.80206 7.80673H2.10729C1.95854 7.80673 1.83781 7.92584 1.83781 8.07297V13.9274C1.83781 14.0742 1.95854 14.1936 2.10729 14.1936H4.80206C4.95351 14.1936 5.10199 14.2357 5.23053 14.3149L10.4611 17.543V4.45713L5.23053 7.68547ZM18.2988 19.0251C18.1438 19.1724 17.9372 19.2529 17.7234 19.2493C17.5096 19.2457 17.3057 19.1583 17.1557 19.0059C17.082 18.931 17.0239 18.8421 16.9849 18.7445C16.9458 18.6469 16.9267 18.5424 16.9285 18.4373C16.9303 18.3322 16.953 18.2285 16.9954 18.1322C17.0377 18.036 17.0988 17.9492 17.1751 17.8768C21.158 14.0756 21.158 7.92395 17.1751 4.1227C17.0989 4.05036 17.0378 3.96355 16.9955 3.86734C16.9532 3.77113 16.9304 3.66745 16.9286 3.56235C16.9268 3.45726 16.946 3.35286 16.985 3.25526C17.024 3.15765 17.082 3.06879 17.1557 2.99386C17.3057 2.84148 17.5096 2.7541 17.7234 2.75052C17.9372 2.74694 18.1438 2.82746 18.2988 2.97473C22.9392 7.40359 22.9392 14.5962 18.2988 19.0251ZM15.5981 15.8372C15.4416 15.9829 15.2341 16.0614 15.0203 16.0556C14.8065 16.0499 14.6035 15.9604 14.455 15.8064C14.3821 15.7307 14.325 15.6413 14.2871 15.5432C14.2492 15.4452 14.2311 15.3407 14.234 15.2356C14.2369 15.1305 14.2607 15.0271 14.304 14.9314C14.3474 14.8356 14.4093 14.7494 14.4863 14.6779C16.6647 12.6414 16.6647 9.35838 14.4863 7.32167C14.4093 7.25011 14.3474 7.16394 14.304 7.06818C14.2607 6.97242 14.2369 6.869 14.234 6.76394C14.2311 6.65888 14.2492 6.5543 14.2871 6.45629C14.325 6.35828 14.3821 6.26881 14.455 6.1931C14.6035 6.03913 14.8065 5.94964 15.0203 5.94389C15.2341 5.93814 15.4416 6.01661 15.5981 6.16238C18.45 8.82886 18.45 13.1709 15.5981 15.8374V15.8372Z" fill="#C3C3C3"/>
</g>
</svg>
