<svg width="16" height="16" viewBox="0 0 16 16" fill="none" xmlns="http://www.w3.org/2000/svg">
<g id="&#232;&#139;&#177;&#229;&#155;&#189;&#229;&#155;&#189;&#230;&#151;&#151;" clip-path="url(#clip0_286_33)">
<path id="Vector" d="M15.4976 6.50007C15.4336 6.11731 15.3055 5.73455 15.1774 5.41559H14.6011L15.0494 5.09662C14.8572 4.65006 14.6651 4.20351 14.409 3.82075L11.9754 5.41559H10.1823L13.8326 3.05523C13.7045 2.92764 13.6405 2.80005 13.5124 2.67247L10.1183 4.90524V0.694871C9.79809 0.631078 9.54193 0.567284 9.22173 0.503491V6.56387H15.4976V6.50007ZM6.78821 0.439697C6.468 0.503491 6.1478 0.567284 5.89164 0.631078V4.96903L2.36944 2.73626C2.04924 3.05523 1.72904 3.43799 1.47288 3.82075L3.9064 5.41559H2.17732L1.0246 4.71386C0.960562 4.84144 0.896522 5.03282 0.832482 5.16041L1.21672 5.41559H0.704402C0.576322 5.79835 0.512282 6.18111 0.448242 6.50007H6.78821V0.439697ZM9.15769 15.5587C9.47789 15.4949 9.79809 15.4312 10.0542 15.3674V11.157L13.4484 13.326C13.7686 13.007 14.0888 12.5604 14.409 12.1777L11.8474 10.5829H13.6405L14.8572 11.3484C14.9213 11.2208 14.9853 11.0932 15.0494 10.9018L14.473 10.5829H15.1774C15.3055 10.2001 15.4336 9.88113 15.4976 9.49837H9.15769V15.5587ZM0.448242 9.49837C0.512282 9.88113 0.640362 10.2639 0.768442 10.5829H1.40884L0.896522 10.9018C1.08864 11.3484 1.28076 11.7949 1.60096 12.1777L4.03448 10.5829H5.76356L2.11328 12.9432C2.24136 13.0708 2.3054 13.1984 2.43348 13.326L5.8276 11.0932V15.3036C6.1478 15.3674 6.40396 15.4312 6.72416 15.4949V9.43457H0.448242V9.49837Z" fill="white"/>
<path id="Vector_2" d="M15.0494 10.9656C15.1135 10.838 15.1775 10.7105 15.1775 10.5829H14.4731L15.0494 10.9656ZM10.0543 15.3674C11.3351 14.9846 12.4878 14.2829 13.4484 13.3898L10.0543 11.2208V15.3674ZM15.1775 5.4156C15.1135 5.28801 15.1135 5.22422 15.0494 5.09663L14.6012 5.4156H15.1775ZM2.43355 13.326C3.33011 14.2829 4.54687 14.9846 5.82767 15.3674V11.157L2.43355 13.326ZM5.82767 0.694885C4.48283 1.01385 3.33011 1.77937 2.36951 2.73628L5.82767 4.96905V0.694885ZM13.5125 2.73628C12.6159 1.77937 11.3992 1.07765 10.1184 0.694885V4.96905L13.5125 2.73628ZM0.832548 5.16043C0.768508 5.28801 0.768508 5.35181 0.704468 5.4156H1.21679L0.832548 5.16043ZM0.704468 10.5829C0.768508 10.7105 0.768508 10.7742 0.832548 10.9018L1.34487 10.5829H0.704468Z" fill="#002377"/>
<path id="Vector_3" d="M9.15771 15.5588V9.49838H15.4977C15.5617 8.98803 15.6258 8.54148 15.6258 8.03113C15.6258 7.52078 15.5617 7.01043 15.4977 6.56388H9.15771V0.439709C8.77347 0.439709 8.38923 0.375916 8.00499 0.375916H7.87691C7.49267 0.375916 7.10843 0.439709 6.72419 0.439709V6.50009H0.44827C0.38423 7.01043 0.32019 7.45699 0.32019 7.96733C0.32019 8.47768 0.38423 8.98803 0.44827 9.43458H6.78823V15.495C7.17247 15.5588 7.55671 15.5588 7.94095 15.5588H8.06903C8.38923 15.6863 8.77347 15.6225 9.15771 15.5588Z" fill="#C2121F"/>
<path id="Vector_4" d="M4.03454 10.5829L1.53698 12.1777C1.7291 12.4967 1.92122 12.7518 2.11334 13.007L5.76362 10.5829H4.03454ZM3.9705 5.41559L1.53698 3.82076C1.34486 4.13973 1.15274 4.3949 1.02466 4.71387L2.17738 5.47939H3.9705V5.41559ZM11.9755 5.41559L14.409 3.82076L13.8327 3.05524L10.1824 5.41559H11.9755ZM11.8474 10.5829L14.345 12.2415C14.5371 11.9863 14.6652 11.6674 14.8573 11.4122L13.6405 10.5829H11.8474Z" fill="#C2121F"/>
</g>
<defs>
<clipPath id="clip0_286_33">
<rect width="16" height="16" fill="white"/>
</clipPath>
</defs>
</svg>
