<svg width="16" height="16" viewBox="0 0 16 16" fill="none" xmlns="http://www.w3.org/2000/svg">
<g id="&#233;&#159;&#169;&#229;&#155;&#189;" clip-path="url(#clip0_286_40)">
<path id="Vector" d="M0.313742 6.08678C0.684735 4.55357 1.50263 3.16524 2.6636 2.09803C3.82456 1.03082 5.27625 0.332861 6.83436 0.0927514C8.39248 -0.147358 9.98675 0.0812128 11.4148 0.749448C12.8429 1.41768 14.0403 2.49545 14.8551 3.84592C15.6699 5.1964 16.0653 6.75868 15.9911 8.33444C15.917 9.91021 15.3766 11.4284 14.4386 12.6963C13.5006 13.9641 12.2072 14.9245 10.7227 15.4555C9.23822 15.9865 7.62953 16.0641 6.10087 15.6786C5.09064 15.4305 4.13929 14.9853 3.30133 14.3686C2.46337 13.7519 1.75528 12.9758 1.21766 12.0847C0.680041 11.1936 0.323453 10.2051 0.16834 9.17587C0.0132273 8.14663 0.0626388 7.09688 0.313742 6.08678Z" fill="#F7F8F8"/>
<path id="Vector_2" d="M11.1899 7.55503C11.2382 8.14404 11.1114 8.73419 10.8255 9.25141C10.5395 9.76863 10.1072 10.1899 9.58276 10.4623C9.0583 10.7347 8.46506 10.8461 7.87749 10.7826C7.28993 10.7191 6.73421 10.4834 6.28009 10.1052C5.82596 9.72702 5.49366 9.22311 5.32489 8.65673C5.15611 8.09035 5.15838 7.48674 5.33141 6.92165C5.50444 6.35655 5.84052 5.85516 6.29748 5.48038C6.75443 5.1056 7.31191 4.87413 7.89993 4.81503C8.29655 4.77516 8.69714 4.81474 9.07829 4.93145C9.45944 5.04816 9.81351 5.23965 10.1198 5.49475C10.4261 5.74985 10.6785 6.06343 10.8622 6.41718C11.046 6.77092 11.1574 7.15774 11.1899 7.55503Z" fill="#E72D14"/>
<path id="Vector_3" d="M5.55806 6.23999C5.45469 6.4084 5.38578 6.59536 5.35528 6.79017C5.32479 6.98498 5.33329 7.18384 5.38032 7.3754C5.42734 7.56695 5.51197 7.74745 5.62936 7.90658C5.74675 8.06571 5.8946 8.20036 6.06448 8.30285C6.23437 8.40533 6.42295 8.47364 6.61946 8.50388C6.81597 8.53411 7.01657 8.52568 7.20979 8.47906C7.40301 8.43244 7.58508 8.34855 7.7456 8.23217C7.90612 8.1158 8.04195 7.96922 8.14533 7.8008C8.35278 7.45936 8.68855 7.21359 9.07879 7.11758C9.46902 7.02156 9.88174 7.08316 10.2262 7.28882C10.5706 7.49448 10.8185 7.82735 10.9153 8.21421C11.0122 8.60107 10.9501 9.01023 10.7426 9.35168C10.3264 10.0332 9.65409 10.523 8.87362 10.7132C8.09315 10.9033 7.26845 10.7783 6.58093 10.3657C5.89342 9.95307 5.39941 9.28658 5.20759 8.51286C5.01576 7.73914 5.14183 6.92156 5.55806 6.23999Z" fill="#073470"/>
<path id="Vector_4" d="M3.27174 11.2248L4.05745 12.3912L4.44532 12.1221L3.65962 10.9656L3.27174 11.2248ZM3.1524 11.0254L3.54027 10.7562L2.75457 9.59968L2.36669 9.8589L3.1524 11.0254ZM1.76996 10.2677L3.45076 12.7801L3.84859 12.5109L2.15783 10.0284L1.76996 10.2677ZM3.01316 9.48004L4.65418 12.0224L5.00228 11.7233L3.36125 9.21086L3.01316 9.48004ZM13.3566 6.23984L12.5709 5.04346L12.183 5.30268L12.9588 6.50903L13.3566 6.23984ZM12.4515 4.89391L11.6658 3.73741L11.278 4.04648L12.0537 5.21295L12.4515 4.89391ZM14.1721 5.6915L14.56 5.43229L13.7743 4.26581L13.3864 4.535L14.1721 5.6915ZM13.655 4.04648L12.8693 2.88L12.4814 3.13922L13.2571 4.34557L13.655 4.04648ZM13.9533 5.84105L12.2725 3.32865L11.8747 3.58786L13.5655 6.10027L13.9533 5.84105ZM12.4814 12.5308L12.8693 12.8L13.655 11.6335L13.2571 11.3743L12.4814 12.5308ZM13.3864 11.1849L13.7743 11.4541L14.56 10.2876L14.1622 10.0284L13.3864 11.1849ZM12.6604 10.9656L11.8747 12.1221L12.2626 12.3912L13.0483 11.2248L12.6604 10.9656ZM13.9533 9.87884L13.5655 9.61962L12.7797 10.7761L13.1776 11.0453L13.9533 9.87884ZM12.0537 10.5568L11.278 11.7233L11.6658 11.9825L12.4515 10.826L12.0537 10.5568ZM12.5709 10.6365L13.3566 9.48004L12.9588 9.21086L12.183 10.3773L12.5709 10.6365ZM3.01316 6.23984L3.40104 6.50903L5.00228 4.04648L4.6144 3.78726L3.01316 6.23984ZM2.79435 6.10027L4.48511 3.58786L4.09723 3.32865L2.36669 5.84105L2.79435 6.10027ZM3.88837 3.1791L3.49055 2.91988L1.76001 5.43229L2.15783 5.6915L3.88837 3.1791Z" fill="#3C3736"/>
</g>
<defs>
<clipPath id="clip0_286_40">
<rect width="16" height="16" fill="white"/>
</clipPath>
</defs>
</svg>
