<svg width="16" height="16" viewBox="0 0 16 16" fill="none" xmlns="http://www.w3.org/2000/svg">
<g id="&#230;&#179;&#176;&#229;&#155;&#189; 1" clip-path="url(#clip0_304_9)">
<path id="Vector" d="M0 8C0 10.1217 0.842855 12.1566 2.34315 13.6569C3.84344 15.1571 5.87827 16 8 16C10.1217 16 12.1566 15.1571 13.6569 13.6569C15.1571 12.1566 16 10.1217 16 8C16 5.87827 15.1571 3.84344 13.6569 2.34315C12.1566 0.842855 10.1217 0 8 0C5.87827 0 3.84344 0.842855 2.34315 2.34315C0.842855 3.84344 0 5.87827 0 8Z" fill="#D42D1F"/>
<path id="Vector_2" d="M1.7 3C0.7 4.4 0 6.1 0 8C0 9.9 0.7 11.7 1.8 13H14.2C15.3 11.6 16 9.9 16 8C16 6.1 15.3 4.4 14.3 3H1.7Z" fill="white"/>
<path id="Vector_3" d="M0.5 5.29999C0.2 6.09999 0 6.99999 0 7.99999C0 8.99999 0.2 9.89999 0.5 10.8H15.5C15.8 9.89999 16 8.99999 16 7.99999C16 6.99999 15.8 6.09999 15.5 5.29999H0.5Z" fill="#012094"/>
</g>
<defs>
<clipPath id="clip0_304_9">
<rect width="16" height="16" fill="white"/>
</clipPath>
</defs>
</svg>
