<svg width="16" height="16" viewBox="0 0 16 16" fill="none" xmlns="http://www.w3.org/2000/svg">
<g id="Group 1505">
<path id="Vector" d="M0 8C0 3.58172 3.58172 0 8 0C12.4183 0 16 3.58172 16 8C16 12.4183 12.4183 16 8 16C3.58172 16 0 12.4183 0 8Z" fill="#D8231D"/>
<path id="Vector_2" d="M12.7288 5.31773C12.7297 5.31558 12.7324 5.31492 12.7342 5.31643C12.8359 5.40453 12.9323 5.49865 13.0228 5.5983L13.1888 5.77259C13.2628 5.85032 13.3785 5.8714 13.4752 5.82475L13.6814 5.72525C13.8132 5.66168 13.9466 5.79131 13.8746 5.91862C13.8435 5.97979 13.8116 6.04044 13.7793 6.10148C13.7205 6.21274 13.7399 6.3489 13.8272 6.43958L14.2244 6.85228C14.2414 6.86999 14.2298 6.89874 14.2053 6.89726L13.496 6.76414C13.4274 6.75166 13.4274 6.75374 13.392 6.81718L13.0634 7.44118C13.0501 7.46326 13.0164 7.45651 13.0126 7.43101L12.9989 7.33822C12.9677 7.13022 12.9396 6.92222 12.9115 6.71422C12.9032 6.6643 12.9032 6.66326 12.8523 6.65286L12.1243 6.51974C12.1063 6.51653 12.1061 6.49434 12.1222 6.48561C12.2326 6.42565 12.3452 6.37455 12.456 6.32006C12.6809 6.21199 12.8113 5.97219 12.78 5.72471L12.7286 5.31941C12.7285 5.31884 12.7286 5.31826 12.7288 5.31773ZM10.1963 3.46931C10.1968 3.46735 10.198 3.4656 10.1995 3.4643L10.2014 3.46279C10.2064 3.45855 10.2134 3.45748 10.2196 3.45999L10.804 3.7005C10.9016 3.74067 11.014 3.71323 11.0821 3.63259L11.4543 3.19192C11.4735 3.16917 11.5107 3.18276 11.5107 3.21254L11.4639 3.90206C11.4639 3.9707 11.4639 3.9707 11.5231 3.99566L12.1838 4.2624C12.1864 4.26345 12.1881 4.26386 12.1909 4.26416C12.2107 4.26633 12.2084 4.29994 12.1897 4.30651L12.1804 4.30974L11.4784 4.48134C11.4191 4.49382 11.4191 4.49382 11.4139 4.55622L11.364 5.30814C11.3618 5.32143 11.3444 5.32506 11.3371 5.31377L11.3151 5.28006C11.1903 5.08038 11.0655 4.87966 10.9376 4.67998C10.9033 4.62382 10.9012 4.62382 10.8336 4.6415L10.1389 4.81102C10.119 4.81486 10.1053 4.79163 10.1182 4.77605C10.2511 4.61669 10.381 4.4632 10.5115 4.30844C10.5779 4.22971 10.5865 4.11737 10.533 4.02937L10.1974 3.47738C10.1959 3.47496 10.1955 3.47203 10.1963 3.46931ZM8.90754 6.39286L7.2633 7.60654L7.22274 7.6367C7.17594 7.6731 7.17594 7.6731 7.19466 7.73134L7.64394 9.10414L7.85194 9.7427L7.86456 9.78395C7.86604 9.78878 7.86243 9.79366 7.85738 9.79366C7.85587 9.79366 7.85439 9.7932 7.85314 9.79235L7.81866 9.7687L6.07146 8.4895L6.06157 8.48357C6.05783 8.48133 6.05355 8.48014 6.04919 8.48014C6.04406 8.48014 6.03907 8.48178 6.03494 8.48482L4.25268 9.79518C4.24886 9.79799 4.24367 9.79796 4.23988 9.79512C4.23623 9.79238 4.23471 9.78762 4.2361 9.78327L4.57227 8.73225C4.77745 8.09073 4.54819 7.38994 4.00352 6.99373L3.12315 6.35332C3.12048 6.35137 3.1189 6.34827 3.1189 6.34496C3.1189 6.33925 3.12352 6.33462 3.12923 6.33462H5.25818C5.35178 6.33462 5.33618 6.34606 5.36218 6.25662L6.01738 4.30246C6.0263 4.27144 6.06501 4.27688 6.07498 4.30759L6.61917 5.98336C6.68765 6.19426 6.87931 6.33358 7.10106 6.33358H8.94915C8.95431 6.33358 8.9585 6.33777 8.9585 6.34293C8.9585 6.34559 8.95737 6.34812 8.95539 6.34989L8.90754 6.39286ZM12.183 11.5475C12.1827 11.5492 12.1814 11.5505 12.1798 11.5509L11.4867 11.7187C11.4474 11.7299 11.4194 11.7646 11.4166 11.8054L11.3687 12.514C11.3672 12.5375 11.337 12.5459 11.3235 12.5268L10.9428 11.9215C10.9064 11.8643 10.9054 11.8643 10.8388 11.8799L10.1451 12.0515C10.1238 12.0551 10.1095 12.0301 10.1234 12.0135L10.5127 11.5505C10.5808 11.4695 10.5896 11.3542 10.5346 11.2638L10.2027 10.7187C10.2006 10.7153 10.2009 10.7109 10.2034 10.7078C10.2059 10.7047 10.2101 10.7035 10.2138 10.7048C10.3405 10.7483 10.4623 10.8074 10.5871 10.8534C10.816 10.9464 11.0786 10.8815 11.2377 10.6926L11.5012 10.3796C11.5026 10.378 11.5046 10.3771 11.5067 10.3771C11.5106 10.3771 11.5138 10.3803 11.5138 10.3842V10.4478L11.467 11.1353V11.1389C11.467 11.153 11.4637 11.1674 11.4658 11.1814C11.4669 11.1885 11.4694 11.1952 11.4732 11.2013C11.477 11.2074 11.482 11.2126 11.4879 11.2166C11.4997 11.2246 11.5142 11.2274 11.5274 11.2327L11.7946 11.3401L12.1939 11.5003L12.1966 11.5014C12.2148 11.5089 12.2138 11.5349 12.1952 11.5411L12.1859 11.5442C12.1845 11.5447 12.1833 11.546 12.183 11.5475ZM14.2039 9.0551C14.1993 9.06005 14.1943 9.06463 14.189 9.06878L13.6479 9.48998C13.5938 9.53158 13.5938 9.53158 13.6167 9.59398L13.8538 10.2565C13.8647 10.2851 13.8315 10.3015 13.8063 10.284L13.389 9.99513C13.2614 9.90678 13.0913 9.91141 12.9687 10.0065L12.521 10.354C12.5177 10.3566 12.513 10.3565 12.5097 10.3539C12.5068 10.3516 12.5056 10.3477 12.5066 10.3442L12.6164 9.96456C12.6883 9.71596 12.593 9.44925 12.3798 9.30255L12.0612 9.08337C12.0584 9.0814 12.0567 9.07815 12.0567 9.07467C12.0567 9.06904 12.0611 9.0644 12.0667 9.06413C12.2216 9.05668 12.3768 9.05446 12.5335 9.05098C12.7438 9.04632 12.9242 8.90485 12.9855 8.70364L13.1221 8.2555C13.1231 8.25241 13.1259 8.2503 13.1291 8.2503C13.1321 8.2503 13.1348 8.25213 13.1359 8.25491L13.1591 8.3127L13.3931 8.96998C13.4139 9.02926 13.4139 9.02926 13.4763 9.02718L14.172 9.00638H14.2286C14.2335 9.00638 14.2375 9.0104 14.2375 9.01534C14.2375 9.01761 14.2367 9.01978 14.2351 9.02144L14.2039 9.0551Z" fill="#FFFA30"/>
</g>
</svg>
