<svg width="15" height="15" viewBox="0 0 15 15" fill="none" xmlns="http://www.w3.org/2000/svg">
<g id="Frame">
<path id="Vector" d="M1.64246 4.16143C1.64246 4.55673 1.79397 4.94816 2.08833 5.31338C2.3827 5.67859 2.81416 6.01043 3.35808 6.28995C3.902 6.56947 4.54773 6.7912 5.2584 6.94248C5.96907 7.09375 6.73075 7.17161 7.49997 7.17161C8.2692 7.17161 9.03088 7.09375 9.74155 6.94248C10.4522 6.7912 11.0979 6.56947 11.6419 6.28995C12.1858 6.01043 12.6172 5.67859 12.9116 5.31338C13.206 4.94816 13.3575 4.55673 13.3575 4.16143C13.3575 3.36308 12.7404 2.59743 11.6419 2.03291C10.5434 1.46839 9.05349 1.15125 7.49997 1.15125C5.94646 1.15125 4.45658 1.46839 3.35808 2.03291C2.25959 2.59743 1.64246 3.36308 1.64246 4.16143Z" fill="url(#paint0_linear_8_50)"/>
<path id="Vector_2" d="M7.49997 8.0773C5.10737 8.0773 3.0499 7.34008 2.14055 6.28357C1.82039 6.65556 1.64246 7.0671 1.64246 7.50002C1.64246 9.1625 4.26496 10.5102 7.49997 10.5102C10.735 10.5102 13.3575 9.1625 13.3575 7.50002C13.3575 7.0671 13.1796 6.65556 12.8594 6.28357C11.9501 7.34008 9.89258 8.0773 7.49997 8.0773Z" fill="url(#paint1_linear_8_50)"/>
<path id="Vector_3" d="M7.49997 11.4988C5.07615 11.4988 2.99622 10.7422 2.10549 9.66357C1.80739 10.0246 1.64246 10.4217 1.64246 10.8385C1.64246 12.501 4.26496 13.8487 7.49997 13.8487C10.735 13.8487 13.3575 12.501 13.3575 10.8385C13.3575 10.4216 13.1926 10.0246 12.8945 9.66357C12.0037 10.7422 9.9238 11.4988 7.49997 11.4988Z" fill="url(#paint2_linear_8_50)"/>
</g>
<defs>
<linearGradient id="paint0_linear_8_50" x1="7.49998" y1="1.15125" x2="7.49998" y2="7.17161" gradientUnits="userSpaceOnUse">
<stop stop-color="#5797EC"/>
<stop offset="1" stop-color="#395BC7"/>
</linearGradient>
<linearGradient id="paint1_linear_8_50" x1="7.49998" y1="6.28357" x2="7.49998" y2="10.5102" gradientUnits="userSpaceOnUse">
<stop stop-color="#5797EC"/>
<stop offset="1" stop-color="#395BC7"/>
</linearGradient>
<linearGradient id="paint2_linear_8_50" x1="7.49998" y1="9.66357" x2="7.49998" y2="13.8487" gradientUnits="userSpaceOnUse">
<stop stop-color="#5797EC"/>
<stop offset="1" stop-color="#395BC7"/>
</linearGradient>
</defs>
</svg>
