<svg width="18" height="18" viewBox="0 0 18 18" fill="none" xmlns="http://www.w3.org/2000/svg">
<g id="Group 1527">
<path id="Ellipse 11" d="M18 9C18 13.9706 13.9706 18 9 18C4.02944 18 0 13.9706 0 9C0 4.02944 4.02944 0 9 0C13.9706 0 18 4.02944 18 9Z" fill="url(#paint0_linear_22_33)"/>
<path id="Ellipse 11 (Stroke)" fill-rule="evenodd" clip-rule="evenodd" d="M9 17.4783C13.6824 17.4783 17.4783 13.6824 17.4783 9C17.4783 4.31759 13.6824 0.521739 9 0.521739C4.31759 0.521739 0.521739 4.31759 0.521739 9C0.521739 13.6824 4.31759 17.4783 9 17.4783ZM9 18C13.9706 18 18 13.9706 18 9C18 4.02944 13.9706 0 9 0C4.02944 0 0 4.02944 0 9C0 13.9706 4.02944 18 9 18Z" fill="url(#paint1_linear_22_33)"/>
<g id="Vector 6" filter="url(#filter0_d_22_33)">
<path d="M13.5247 4.44299H10.4869C10.27 4.44299 10.1478 4.69247 10.2809 4.86386L13.3187 8.77599C13.4711 8.97226 13.7856 8.86449 13.7856 8.61599V4.70386C13.7856 4.55979 13.6688 4.44299 13.5247 4.44299Z" fill="white"/>
</g>
<g id="Vector 7" filter="url(#filter1_d_22_33)">
<path d="M4.66614 12.6476V4.84821C4.66614 4.6321 4.84133 4.45691 5.05744 4.45691H6.9443C7.18415 4.45691 7.41076 4.5669 7.55915 4.75533L13.7498 12.6167C13.8845 12.7878 13.7626 13.0389 13.5448 13.0389H11.0277C10.7872 13.0389 10.56 12.9283 10.4117 12.7389L7.32414 8.7974V12.6476C7.32414 12.8637 7.14895 13.0389 6.93284 13.0389H5.05744C4.84133 13.0389 4.66614 12.8637 4.66614 12.6476Z" fill="white"/>
</g>
</g>
<defs>
<filter id="filter0_d_22_33" x="10.2256" y="4.44299" width="3.55994" height="4.93433" filterUnits="userSpaceOnUse" color-interpolation-filters="sRGB">
<feFlood flood-opacity="0" result="BackgroundImageFix"/>
<feColorMatrix in="SourceAlpha" type="matrix" values="0 0 0 0 0 0 0 0 0 0 0 0 0 0 0 0 0 0 127 0" result="hardAlpha"/>
<feOffset dy="0.5"/>
<feComposite in2="hardAlpha" operator="out"/>
<feColorMatrix type="matrix" values="0 0 0 0 0.482353 0 0 0 0 0.482353 0 0 0 0 0.482353 0 0 0 1 0"/>
<feBlend mode="normal" in2="BackgroundImageFix" result="effect1_dropShadow_22_33"/>
<feBlend mode="normal" in="SourceGraphic" in2="effect1_dropShadow_22_33" result="shape"/>
</filter>
<filter id="filter1_d_22_33" x="4.66614" y="4.45691" width="9.14001" height="9.08203" filterUnits="userSpaceOnUse" color-interpolation-filters="sRGB">
<feFlood flood-opacity="0" result="BackgroundImageFix"/>
<feColorMatrix in="SourceAlpha" type="matrix" values="0 0 0 0 0 0 0 0 0 0 0 0 0 0 0 0 0 0 127 0" result="hardAlpha"/>
<feOffset dy="0.5"/>
<feComposite in2="hardAlpha" operator="out"/>
<feColorMatrix type="matrix" values="0 0 0 0 0.482353 0 0 0 0 0.482353 0 0 0 0 0.482353 0 0 0 1 0"/>
<feBlend mode="normal" in2="BackgroundImageFix" result="effect1_dropShadow_22_33"/>
<feBlend mode="normal" in="SourceGraphic" in2="effect1_dropShadow_22_33" result="shape"/>
</filter>
<linearGradient id="paint0_linear_22_33" x1="14.625" y1="1.6875" x2="5.0625" y2="16.3125" gradientUnits="userSpaceOnUse">
<stop stop-color="#4E8FDE"/>
<stop offset="0.958894" stop-color="#2A4D78"/>
</linearGradient>
<linearGradient id="paint1_linear_22_33" x1="9" y1="0" x2="9" y2="18" gradientUnits="userSpaceOnUse">
<stop stop-color="white"/>
<stop offset="1" stop-color="#7B7B7B"/>
</linearGradient>
</defs>
</svg>
