<svg width="14" height="14" viewBox="0 0 14 14" fill="none" xmlns="http://www.w3.org/2000/svg">
<g id="&#232;&#167;&#132;&#229;&#136;&#153; (1) 1" clip-path="url(#clip0_2_570)">
<path id="Vector" d="M6.99998 0.956486C10.3913 0.956486 13.0869 3.65213 13.0869 7.04344C13.0869 10.4347 10.3913 13.1304 6.99998 13.1304C3.60867 13.1304 0.913029 10.4347 0.913029 7.04344C0.913029 3.65213 3.60867 0.956486 6.99998 0.956486ZM6.99998 0.0869141C3.17391 0.0869141 0.043457 3.21736 0.043457 7.04344C0.043457 10.8695 3.17391 14 6.99998 14C10.8261 14 13.9565 10.8695 13.9565 7.04344C13.9565 3.21736 10.8261 0.0869141 6.99998 0.0869141Z" fill="white" fill-opacity="0.6"/>
<path id="Vector_2" d="M7.00005 5.91299C6.47832 5.91299 6.13049 6.2608 6.13049 6.69559V10.4347C6.13049 10.8695 6.47831 11.2173 7.00005 11.2173C7.52178 11.2173 7.86961 10.8695 7.86961 10.4347V6.69561C7.86961 6.26082 7.5218 5.91299 7.00005 5.91299ZM7.00005 4.60864C7.52178 4.60864 7.86961 4.26083 7.86961 3.73908C7.86961 3.21733 7.5218 2.86951 7.00005 2.86951C6.47832 2.86951 6.13049 3.21733 6.13049 3.73908C6.13049 4.26081 6.47831 4.60864 7.00005 4.60864Z" fill="white" fill-opacity="0.6"/>
</g>
<defs>
<clipPath id="clip0_2_570">
<rect width="14" height="14" fill="white"/>
</clipPath>
</defs>
</svg>
