<svg width="16" height="16" viewBox="0 0 16 16" fill="none" xmlns="http://www.w3.org/2000/svg">
<g id="&#233;&#151;&#170;&#229;&#133;&#145;">
<path id="Vector" d="M5.30907 7.30904L5.27271 7.3454C4.65453 8.03631 4.9818 9.19994 5.92726 9.38176L6.21817 9.45449L5.89089 10.5454C5.52726 11.7818 7.05453 12.6909 7.96362 11.7818L11.0545 8.69085L11.0909 8.65449C11.7091 7.96358 11.3818 6.79994 10.4363 6.61813L10.1454 6.5454L10.4727 5.45449C10.8363 4.21813 9.30907 3.30904 8.39998 4.21813L5.30907 7.30904ZM9.27271 5.09085L8.5818 7.49085L10.1818 7.81813L7.09089 10.909L7.7818 8.50904L6.1818 8.18176L9.27271 5.09085Z" fill="white"/>
<path id="Vector_2" d="M13.6364 2.54549C13.9273 2.54549 14.1819 2.80003 14.1819 3.09094C14.1819 3.38185 13.9273 3.6364 13.6364 3.6364H13.3455C14.3273 4.8364 14.9091 6.32731 14.9091 8.00003C14.9091 11.8182 11.8182 14.9091 8.00003 14.9091C7.12731 14.9091 6.29094 14.7637 5.52731 14.4728L6.07276 13.5273C6.65458 13.7455 7.30912 13.8546 8.00003 13.8546C11.2 13.8546 13.8182 11.2364 13.8182 8.0364C13.8182 6.29094 13.0546 4.69094 11.8182 3.6364C11.7091 3.38185 11.6364 3.20003 11.6364 3.09094C11.6364 2.80003 11.8909 2.54549 12.1819 2.54549H13.6364ZM8.00003 1.09094C8.87276 1.09094 9.70912 1.2364 10.4728 1.52731L9.92731 2.47276C9.30912 2.29094 8.65458 2.18185 8.00003 2.18185C4.80003 2.18185 2.18185 4.80003 2.18185 8.00003C2.18185 9.74549 2.94549 11.3455 4.18185 12.4C4.29094 12.6182 4.36367 12.8 4.36367 12.9091C4.36367 13.2 4.10912 13.4546 3.81821 13.4546H2.36367C2.07276 13.4546 1.81822 13.2 1.81822 12.9091C1.81822 12.6182 2.07276 12.3637 2.36367 12.3637H2.65458C1.67276 11.1637 1.09094 9.67276 1.09094 8.00003C1.09094 4.18185 4.18185 1.09094 8.00003 1.09094Z" fill="white"/>
</g>
</svg>
