<svg width="16" height="16" viewBox="0 0 16 16" fill="none" xmlns="http://www.w3.org/2000/svg">
<g id="batchmove">
<path id="Vector" d="M10.9422 3.36877H2.65002C1.73752 3.36877 0.993774 4.11252 0.993774 5.02502V13.3188C0.993774 14.2313 1.73596 14.975 2.65002 14.975H10.9438C11.8563 14.975 12.6 14.2328 12.6 13.3188V5.02502C12.5985 4.11252 11.8563 3.36877 10.9422 3.36877ZM11.3485 13.3188C11.3485 13.5391 11.1625 13.725 10.9422 13.725H2.65002C2.42971 13.725 2.24377 13.5391 2.24377 13.3188V5.02502C2.24377 4.80471 2.42971 4.61877 2.65002 4.61877H10.9438C11.1641 4.61877 11.35 4.80471 11.35 5.02502V13.3188H11.3485Z" fill="white"/>
<path id="Vector_2" d="M14.9953 2.6687C14.9953 1.7562 14.2531 1.01245 13.3391 1.01245H5.48436C5.13905 1.01245 4.85936 1.29214 4.85936 1.63745C4.85936 1.98276 5.13905 2.26245 5.48436 2.26245H13.3391C13.5594 2.26245 13.7453 2.44839 13.7453 2.6687V10.5828C13.7453 10.9281 14.025 11.2078 14.3703 11.2078C14.7156 11.2078 14.9953 10.9281 14.9953 10.5828V2.6687ZM9.61561 7.83745L8.34374 6.56558C8.09686 6.3187 7.6953 6.3187 7.44843 6.56558C7.20155 6.81245 7.20155 7.21401 7.44843 7.46089L7.56249 7.57495C7.28905 7.6562 7.0203 7.75933 6.76093 7.8812C6.09843 8.19526 5.50936 8.62808 5.01093 9.17026C4.51249 9.71245 4.12968 10.3359 3.87186 11.0218C3.86561 11.0359 3.86093 11.0515 3.85624 11.0656C3.81249 11.1546 3.79061 11.2562 3.7953 11.364C3.80936 11.7093 4.10155 11.9765 4.4453 11.9625C4.72186 11.9515 4.94999 11.7609 5.0203 11.5078L5.02655 11.5093C5.47655 10.2703 6.46718 9.27964 7.72186 8.83901L7.44999 9.11089C7.20311 9.35776 7.20311 9.75933 7.44999 10.0062C7.69686 10.2531 8.09843 10.2531 8.3453 10.0062L9.61718 8.73433C9.86093 8.48745 9.86093 8.08433 9.61561 7.83745Z" fill="white"/>
</g>
</svg>
