<svg width="14" height="14" viewBox="0 0 14 14" fill="none" xmlns="http://www.w3.org/2000/svg">
<g id="usdt (2) 1">
<g clip-path="url(#clip0_8_43)">
<rect width="14" height="14" rx="7" fill="#26A17B"/>
<path id="Vector" d="M7 0C3.136 0 0 3.136 0 7C0 10.864 3.136 14 7 14C10.864 14 14 10.864 14 7C14 3.136 10.864 0 7 0ZM7 13.258C3.542 13.258 0.742 10.458 0.742 7C0.742 3.542 3.542 0.742 7 0.742C10.458 0.742 13.258 3.542 13.258 7C13.258 10.458 10.458 13.258 7 13.258Z" fill="white"/>
<path id="Vector_2" d="M10.829 7.21701C10.829 6.60801 9.17698 6.37001 7.84698 6.29301V5.45301H10.066V3.88501H3.94798V5.45301H6.16698V6.29301C4.83698 6.36301 3.17798 6.60801 3.17798 7.21701C3.17798 7.82601 4.82998 8.06401 6.15998 8.14101V11.151H7.84698V8.14101C9.17698 8.06401 10.829 7.82601 10.829 7.21701ZM6.99998 7.88201C4.70398 7.88201 3.45098 7.44101 3.45098 7.21701C3.45098 7.02101 4.40298 6.66401 6.15998 6.57301V7.71401H7.84698V6.57301C9.60398 6.66401 10.556 7.02101 10.556 7.21701C10.549 7.44101 9.29598 7.88201 6.99998 7.88201Z" fill="white"/>
</g>
</g>
<defs>
<clipPath id="clip0_8_43">
<rect width="14" height="14" rx="7" fill="white"/>
</clipPath>
</defs>
</svg>
