<svg width="16" height="16" viewBox="0 0 16 16" fill="none" xmlns="http://www.w3.org/2000/svg">
<g id="Frame">
<path id="Vector" d="M1.75195 4.43889C1.75195 4.86055 1.91356 5.27807 2.22756 5.66763C2.54155 6.05719 3.00177 6.41116 3.58196 6.70931C4.16214 7.00747 4.85091 7.24398 5.60896 7.40534C6.367 7.5667 7.17947 7.64975 7.99997 7.64975C8.82047 7.64975 9.63294 7.5667 10.391 7.40534C11.149 7.24398 11.8378 7.00747 12.418 6.70931C12.9982 6.41116 13.4584 6.05719 13.7724 5.66763C14.0864 5.27807 14.248 4.86055 14.248 4.43889C14.248 3.58732 13.5897 2.77062 12.418 2.16847C11.2463 1.56631 9.65705 1.22803 7.99997 1.22803C6.3429 1.22803 4.75369 1.56631 3.58196 2.16847C2.41022 2.77062 1.75195 3.58732 1.75195 4.43889Z" fill="white"/>
<path id="Vector_2" d="M7.99997 8.6157C5.44786 8.6157 3.25322 7.82934 2.28326 6.70239C1.94174 7.09918 1.75195 7.53816 1.75195 7.99994C1.75195 9.77325 4.54929 11.2108 7.99997 11.2108C11.4507 11.2108 14.248 9.77325 14.248 7.99994C14.248 7.53816 14.0582 7.09918 13.7167 6.70239C12.7467 7.82934 10.5521 8.6157 7.99997 8.6157Z" fill="white"/>
<path id="Vector_3" d="M7.99997 12.2654C5.41456 12.2654 3.19597 11.4584 2.24586 10.3079C1.92788 10.6929 1.75195 11.1165 1.75195 11.5611C1.75195 13.3344 4.54929 14.772 7.99997 14.772C11.4507 14.772 14.248 13.3344 14.248 11.5611C14.248 11.1165 14.0721 10.6929 13.7541 10.3079C12.804 11.4584 10.5854 12.2654 7.99997 12.2654Z" fill="white"/>
</g>
</svg>
