<svg width="12" height="12" viewBox="0 0 12 12" fill="none" xmlns="http://www.w3.org/2000/svg">
<g id="Frame">
<path id="Vector" d="M8.4375 2.25H2.0625C1.81395 2.2503 1.57567 2.34917 1.39992 2.52492C1.22417 2.70067 1.1253 2.93895 1.125 3.1875V10.3125C1.125 10.8296 1.54575 11.25 2.0625 11.25H8.4375C8.95463 11.25 9.375 10.8296 9.375 10.3125V3.1875C9.375 2.67075 8.95463 2.25 8.4375 2.25ZM8.625 10.3125C8.625 10.4156 8.54063 10.5 8.4375 10.5H2.0625C2.01277 10.5 1.96508 10.4802 1.92992 10.4451C1.89475 10.4099 1.875 10.3622 1.875 10.3125V3.1875C1.875 3.13777 1.89475 3.09008 1.92992 3.05492C1.96508 3.01975 2.01277 3 2.0625 3H8.4375C8.48723 3 8.53492 3.01975 8.57008 3.05492C8.60525 3.09008 8.625 3.13777 8.625 3.1875V10.3125Z" fill="white"/>
<path id="Vector_2" d="M9.9375 0.75H3.5625C3.46304 0.75 3.36766 0.789509 3.29734 0.859835C3.22701 0.930161 3.1875 1.02554 3.1875 1.125C3.1875 1.22446 3.22701 1.31984 3.29734 1.39017C3.36766 1.46049 3.46304 1.5 3.5625 1.5H9.9375C9.98723 1.5 10.0349 1.51975 10.0701 1.55492C10.1052 1.59008 10.125 1.63777 10.125 1.6875V8.8125C10.125 8.91196 10.1645 9.00734 10.2348 9.07767C10.3052 9.14799 10.4005 9.1875 10.5 9.1875C10.5995 9.1875 10.6948 9.14799 10.7652 9.07767C10.8355 9.00734 10.875 8.91196 10.875 8.8125V1.6875C10.875 1.17075 10.4546 0.75 9.9375 0.75Z" fill="white"/>
<path id="Vector_3" d="M7.125 4.21875H3.375C3.27554 4.21875 3.18016 4.25826 3.10984 4.32859C3.03951 4.39891 3 4.49429 3 4.59375C3 4.69321 3.03951 4.78859 3.10984 4.85891C3.18016 4.92924 3.27554 4.96875 3.375 4.96875H7.125C7.22446 4.96875 7.31984 4.92924 7.39017 4.85891C7.46049 4.78859 7.5 4.69321 7.5 4.59375C7.5 4.49429 7.46049 4.39891 7.39017 4.32859C7.31984 4.25826 7.22446 4.21875 7.125 4.21875ZM7.125 6.09375H3.375C3.27554 6.09375 3.18016 6.13326 3.10984 6.20358C3.03951 6.27391 3 6.36929 3 6.46875C3 6.56821 3.03951 6.66359 3.10984 6.73392C3.18016 6.80424 3.27554 6.84375 3.375 6.84375H7.125C7.22446 6.84375 7.31984 6.80424 7.39017 6.73392C7.46049 6.66359 7.5 6.56821 7.5 6.46875C7.5 6.36929 7.46049 6.27391 7.39017 6.20358C7.31984 6.13326 7.22446 6.09375 7.125 6.09375ZM5.625 7.953H3.375C3.27554 7.953 3.18016 7.99251 3.10984 8.06283C3.03951 8.13316 3 8.22854 3 8.328C3 8.42746 3.03951 8.52284 3.10984 8.59317C3.18016 8.66349 3.27554 8.703 3.375 8.703H5.625C5.72446 8.703 5.81984 8.66349 5.89016 8.59317C5.96049 8.52284 6 8.42746 6 8.328C6 8.22854 5.96049 8.13316 5.89016 8.06283C5.81984 7.99251 5.72446 7.953 5.625 7.953Z" fill="white"/>
</g>
</svg>
