<svg width="22" height="22" viewBox="0 0 22 22" fill="none" xmlns="http://www.w3.org/2000/svg">
<g id="&#229;&#164;&#141;&#229;&#136;&#182; 1">
<path id="Vector" d="M15.7198 14.5247V3.93863C15.7198 3.28908 15.1931 2.76245 14.5436 2.76245H3.95782C3.30827 2.76245 2.78162 3.28908 2.78162 3.93863V14.5247C2.78162 15.1737 3.30827 15.7009 3.95782 15.7009H14.5436C15.1931 15.7009 15.7198 15.1737 15.7198 14.5247ZM13.3674 14.5247H5.13402C4.48447 14.5247 3.95782 13.9975 3.95782 13.3485V5.11483C3.95782 4.46528 4.48447 3.93863 5.13402 3.93863H13.3674C14.0169 3.93863 14.5436 4.46526 14.5436 5.11483V13.3486C14.5436 13.9975 14.0169 14.5247 13.3674 14.5247ZM18.0722 6.29104H16.896V7.46724C17.5455 7.46724 18.0722 7.99389 18.0722 8.64371V16.8771C18.0722 17.5261 17.5455 18.0533 16.896 18.0533H8.66259C8.01304 18.0533 7.48638 17.5261 7.48638 16.8771H6.31018V18.0533C6.31018 18.7023 6.83683 19.2295 7.48638 19.2295H18.0722C18.7217 19.2295 19.2484 18.7023 19.2484 18.0533V7.46724C19.2484 6.81767 18.7217 6.29104 18.0722 6.29104Z" fill="#5A9FF1"/>
</g>
</svg>
