<svg width="20" height="20" viewBox="0 0 20 20" fill="none" xmlns="http://www.w3.org/2000/svg">
<g id="&#228;&#184;&#139;&#230;&#139;&#137; (1) 1">
<path id="Vector" d="M16.3502 6.53751C16.2642 6.45097 16.162 6.38228 16.0493 6.33541C15.9367 6.28853 15.8159 6.2644 15.6939 6.2644C15.5719 6.2644 15.4512 6.28853 15.3385 6.33541C15.2259 6.38228 15.1237 6.45097 15.0377 6.53751L10.0377 11.5375L5.03769 6.53751C4.86709 6.38116 4.64409 6.29442 4.41268 6.29442C4.18128 6.29442 3.95828 6.38116 3.78768 6.53751C3.6286 6.70674 3.54004 6.93026 3.54004 7.16251C3.54004 7.39477 3.6286 7.61829 3.78768 7.78751L9.42518 13.425C9.56703 13.6043 9.77342 13.721 10.0002 13.75C10.1234 13.7506 10.2454 13.7266 10.3592 13.6793C10.4729 13.6321 10.5761 13.5627 10.6627 13.475L16.3002 7.83751C16.3897 7.75598 16.4621 7.65744 16.5131 7.54764C16.5642 7.43784 16.5929 7.31898 16.5975 7.19799C16.6022 7.07699 16.5827 6.95628 16.5402 6.84289C16.4978 6.72949 16.4332 6.62569 16.3502 6.53751Z" fill="white"/>
</g>
</svg>
