<svg width="26" height="26" viewBox="0 0 26 26" fill="none" xmlns="http://www.w3.org/2000/svg">
<g id="&#232;&#191;&#148;&#228;&#189;&#163;&#231;&#172;&#172;&#228;&#184;&#128;&#229;&#144;&#141;@2x 1">
<path id="Vector" d="M24.7193 11.6369C23.0183 13.7098 20.0078 17.1297 20.0078 17.1297C20.0078 17.1297 20.4998 20.8856 20.7758 23.452C20.8958 24.7584 19.9538 25.3239 18.8859 24.8139C16.9433 23.8351 15.0038 22.8501 13.0675 21.859L7.18608 24.7824C6.1061 25.2909 5.15211 24.7254 5.27361 23.4205C5.55261 20.8586 6.0506 17.1057 6.0506 17.1057C6.0506 17.1057 3.00565 13.6948 1.28368 11.6249C0.674692 10.8749 1.06619 9.80549 2.26616 9.60899C4.71262 9.14701 8.50605 8.40904 8.50605 8.40904C8.50605 8.40904 10.5805 4.58719 11.893 2.24578C12.6145 0.820835 13.1155 0.985829 13.201 1.02783C13.423 1.10582 13.774 1.38181 14.2329 2.24728C15.3602 4.29836 16.4767 6.35531 17.5824 8.41804C17.5824 8.41804 21.3293 9.15451 23.7473 9.61799C24.9338 9.81599 25.3223 10.8854 24.7193 11.6369Z" fill="url(#paint0_linear_32_74)"/>
</g>
<defs>
<linearGradient id="paint0_linear_32_74" x1="25" y1="1" x2="-2.7455" y2="19.3308" gradientUnits="userSpaceOnUse">
<stop stop-color="#5FBBED"/>
<stop offset="1" stop-color="#3452C2"/>
</linearGradient>
</defs>
</svg>
