<svg width="26" height="26" viewBox="0 0 26 26" fill="none" xmlns="http://www.w3.org/2000/svg">
<g id="&#229;&#133;&#182;&#228;&#187;&#150;&#229;&#156;&#186;&#230;&#172;&#161;">
<g id="Group 1532">
<path id="Vector" d="M18.7683 4.92405L23.6219 9.99443C23.7711 10.1505 23.8876 10.3348 23.9644 10.5365C24.0413 10.7382 24.077 10.9533 24.0695 11.1691C24.0619 11.3848 24.0113 11.5969 23.9205 11.7928C23.8298 11.9886 23.7007 12.1644 23.541 12.3096L11.6643 23.0975C10.6483 24.0204 9.31198 24.51 7.94022 24.4619C6.56847 24.4139 5.26973 23.832 4.32079 22.8403C3.85954 22.3586 3.49944 21.7894 3.26173 21.1663C3.02402 20.5431 2.91352 19.8787 2.93674 19.2122C2.95997 18.5457 3.11644 17.8906 3.39694 17.2855C3.67744 16.6805 4.07628 16.1377 4.56994 15.6893L16.5098 4.84478C16.8221 4.56065 17.2332 4.40989 17.6552 4.4247C18.0772 4.43951 18.4766 4.61872 18.7683 4.92405Z" fill="#6E6E6E"/>
<path id="Vector_2" d="M13.371 2.28695L19.6192 5.66019C19.8089 5.76244 19.9762 5.90153 20.1113 6.06932C20.2465 6.2371 20.3468 6.43019 20.4063 6.63725C20.4658 6.84431 20.4834 7.06118 20.458 7.27512C20.4326 7.48907 20.3647 7.69578 20.2583 7.88313L12.4278 21.6398C11.7449 22.8409 10.6188 23.7269 9.29064 24.1079C7.96252 24.4889 6.538 24.3347 5.32217 23.6783C4.72971 23.3584 4.20715 22.9232 3.78519 22.3985C3.36323 21.8738 3.05038 21.27 2.865 20.6227C2.67962 19.9754 2.62545 19.2976 2.70568 18.629C2.78591 17.9605 2.99892 17.3147 3.3322 16.7296L11.195 2.90982C11.4042 2.54209 11.7492 2.27094 12.156 2.15451C12.5627 2.03808 12.9989 2.08562 13.371 2.28695Z" fill="#C6C6C6"/>
<path id="Vector_3" d="M3.54743 1.53467H11.8681C12.2972 1.53467 12.7087 1.70512 13.0121 2.00853C13.3155 2.31194 13.486 2.72345 13.486 3.15253V18.2666C13.486 19.7991 12.8772 21.2688 11.7936 22.3524C10.7099 23.436 9.24024 24.0448 7.70776 24.0448C6.17529 24.0448 4.70558 23.436 3.62196 22.3524C2.53834 21.2688 1.92957 19.7991 1.92957 18.2666V3.15253C1.92957 2.72345 2.10002 2.31194 2.40343 2.00853C2.70683 1.70512 3.11834 1.53467 3.54743 1.53467Z" fill="white"/>
<path id="Vector_4" d="M6.0907 20.6675C6.09067 20.88 6.1325 21.0904 6.21379 21.2867C6.29509 21.483 6.41426 21.6614 6.56449 21.8116C6.71473 21.9619 6.89309 22.0811 7.08939 22.1624C7.28569 22.2437 7.49608 22.2856 7.70856 22.2856C7.92104 22.2856 8.13143 22.2437 8.32774 22.1624C8.52404 22.0811 8.7024 21.9619 8.85263 21.8116C9.00287 21.6614 9.12203 21.483 9.20333 21.2867C9.28462 21.0904 9.32645 20.88 9.32642 20.6675C9.32645 20.455 9.28462 20.2446 9.20333 20.0483C9.12203 19.852 9.00287 19.6736 8.85263 19.5234C8.7024 19.3731 8.52404 19.2539 8.32774 19.1726C8.13143 19.0913 7.92104 19.0494 7.70856 19.0494C7.49608 19.0494 7.28569 19.0913 7.08939 19.1726C6.89309 19.2539 6.71473 19.3731 6.56449 19.5234C6.41426 19.6736 6.29509 19.852 6.21379 20.0483C6.1325 20.2446 6.09067 20.455 6.0907 20.6675Z" fill="#070725"/>
</g>
</g>
</svg>
