<svg width="26" height="26" viewBox="0 0 26 26" fill="none" xmlns="http://www.w3.org/2000/svg">
<g id="&#230;&#156;&#141;&#229;&#138;&#161;&#228;&#186;&#186;&#230;&#172;&#161;">
<path id="Vector" d="M0.467799 16.7952V15.7908H0.495322C0.669604 13.5756 2.09595 11.6768 4.14147 10.6403C3.4581 9.91567 3.04073 8.98465 3.04073 7.96189C3.04073 5.78797 4.91197 4.00847 7.28769 3.82959C6.97123 4.16899 6.69607 4.53131 6.46214 4.92113C5.06789 5.366 4.06806 6.55845 4.06806 7.95729C4.06806 9.04884 4.67805 10.0166 5.6045 10.599C5.33848 10.8329 5.09082 11.076 4.85233 11.3328C3.00404 12.1813 1.69693 13.8416 1.51806 15.7862H1.49053V16.653C1.49053 17.5382 1.95833 18.3316 2.69214 18.8498C2.78388 19.3039 2.91688 19.7442 3.08199 20.1707C1.55932 19.6662 0.467773 18.3454 0.467773 16.7952L0.467799 16.7952Z" fill="white"/>
<path id="Vector_2" d="M21.5787 19.1709C21.5787 21.6292 19.3544 23.6197 16.6071 23.6197H9.04424C6.29703 23.6197 4.07263 21.6292 4.07263 19.1709V17.6299H4.08639C4.26527 14.8965 6.00808 12.5391 8.53057 11.2687L8.58561 10.8559C7.70044 9.96157 7.16384 8.78746 7.16384 7.4987C7.16384 4.70104 9.70008 2.43079 12.828 2.43079C15.9559 2.43079 18.4921 4.70104 18.4921 7.4987C18.4921 8.79205 17.9509 9.97074 17.0612 10.8651L17.0428 11.2274C19.6066 12.4887 21.3861 14.869 21.565 17.63H21.5787V19.171V19.1709Z" fill="white"/>
<path id="Vector_3" d="M25.1836 16.7952C25.1836 18.3454 24.0921 19.6663 22.5648 20.1754C22.7299 19.7488 22.8583 19.3085 22.9547 18.8545C23.6885 18.3362 24.1563 17.5474 24.1563 16.6576V15.7908H24.1288C23.9499 13.8462 22.6428 12.186 20.7945 11.3375C20.5606 11.0807 20.3083 10.8376 20.0423 10.6037C20.9733 10.0212 21.5788 9.0535 21.5788 7.96193C21.5788 6.56309 20.5789 5.37064 19.1847 4.92577C18.9508 4.53592 18.6756 4.16903 18.3591 3.83423C20.7395 4.00851 22.6061 5.79261 22.6061 7.96653C22.6061 8.98929 22.1887 9.92031 21.5054 10.645C23.5509 11.6815 24.9772 13.5802 25.1561 15.7954H25.1836V16.7953L25.1836 16.7952Z" fill="white"/>
</g>
</svg>
