<svg width="14" height="14" viewBox="0 0 14 14" fill="none" xmlns="http://www.w3.org/2000/svg">
<g id="Frame">
<path id="Vector" d="M2.56285 5.81082C2.36697 6.54061 2.35414 7.30746 2.5255 8.0434C2.69686 8.77934 3.04711 9.46164 3.54522 10.0298C4.04333 10.5981 4.67392 11.0346 5.38109 11.3008C6.08826 11.5671 6.85019 11.6547 7.59935 11.5561C7.77066 11.5358 7.94305 11.5839 8.07921 11.6898C8.21537 11.7957 8.30434 11.951 8.32689 12.122C8.34943 12.2931 8.30372 12.4661 8.19966 12.6037C8.0956 12.7413 7.94155 12.8323 7.77085 12.8572C6.80781 12.984 5.82835 12.8713 4.91926 12.5292C4.01016 12.187 3.19949 11.6259 2.55907 10.8955C1.91864 10.1652 1.46823 9.2882 1.24773 8.3422C1.02724 7.3962 1.04346 6.41042 1.29497 5.47219L0.511849 5.26219C0.482848 5.25457 0.456292 5.23962 0.43473 5.21878C0.413168 5.19794 0.397323 5.17191 0.388714 5.14318C0.380105 5.11446 0.379022 5.084 0.385569 5.05474C0.392115 5.02548 0.406072 4.99838 0.426099 4.97607L2.60222 2.52256C2.62373 2.49815 2.65162 2.48021 2.68277 2.47077C2.71391 2.46132 2.74707 2.46075 2.77851 2.46911C2.80996 2.47747 2.83846 2.49444 2.8608 2.5181C2.88313 2.54177 2.89843 2.57119 2.90497 2.60306L3.5621 5.81694C3.56799 5.84608 3.56635 5.87625 3.55735 5.90458C3.54835 5.93292 3.53227 5.95849 3.51065 5.97889C3.48902 5.99929 3.46255 6.01385 3.43374 6.02118C3.40493 6.02852 3.37472 6.02839 3.34597 6.02082L2.56285 5.81082ZM11.4362 8.18994C11.6321 7.46014 11.6449 6.6933 11.4736 5.95736C11.3022 5.22142 10.952 4.53911 10.4538 3.97091C9.95574 3.4027 9.32516 2.96615 8.61798 2.69992C7.91081 2.4337 7.14888 2.34603 6.39972 2.44469C6.3137 2.45722 6.22605 2.45253 6.14185 2.4309C6.05765 2.40927 5.9786 2.37113 5.90926 2.31869C5.83993 2.26625 5.78171 2.20056 5.73798 2.12543C5.69424 2.0503 5.66588 1.96723 5.65452 1.88105C5.64316 1.79487 5.64903 1.70728 5.6718 1.62339C5.69457 1.53949 5.73379 1.46096 5.78716 1.39235C5.84054 1.32373 5.90701 1.26641 5.98273 1.2237C6.05845 1.18099 6.14189 1.15375 6.22822 1.14356C7.19127 1.01676 8.17072 1.12943 9.07981 1.4716C9.98891 1.81377 10.7996 2.37488 11.44 3.10521C12.0804 3.83554 12.5308 4.71256 12.7513 5.65856C12.9718 6.60456 12.9556 7.59034 12.7041 8.52857L13.4872 8.73857C13.5162 8.74619 13.5428 8.76114 13.5643 8.78198C13.5859 8.80282 13.6018 8.82885 13.6104 8.85758C13.619 8.8863 13.6201 8.91676 13.6135 8.94602C13.607 8.97528 13.593 9.00237 13.573 9.02469L11.3968 11.4782C11.3753 11.5026 11.3474 11.5205 11.3163 11.53C11.2852 11.5394 11.252 11.54 11.2206 11.5316C11.1891 11.5233 11.1606 11.5063 11.1383 11.4827C11.1159 11.459 11.1006 11.4296 11.0941 11.3977L10.437 8.18382C10.4311 8.15467 10.4327 8.12451 10.4417 8.09618C10.4507 8.06784 10.4668 8.04227 10.4884 8.02187C10.5101 8.00147 10.5365 7.98691 10.5653 7.97958C10.5941 7.97224 10.6243 7.97237 10.6531 7.97994L11.4362 8.18994Z" fill="white" fill-opacity="0.7"/>
</g>
</svg>
