<svg width="68" height="68" viewBox="0 0 68 68" fill="none" xmlns="http://www.w3.org/2000/svg">
<g id="Frame" clip-path="url(#clip0_211_1241)">
<path id="Vector" d="M34 0C15.2073 0 0 15.2073 0 34C0 52.7927 15.2073 68 34 68C52.7927 68 68 52.7927 68 34C68 15.2073 52.7927 0 34 0ZM51.3091 28.2509L32.7636 46.7964C32.3927 47.1673 31.8982 47.4145 31.3418 47.4145C30.6618 47.5382 29.9818 47.3527 29.4873 46.8582L17.8036 35.1127C17.6126 34.9221 17.4611 34.6957 17.3577 34.4464C17.2543 34.1971 17.201 33.9299 17.201 33.66C17.201 33.3901 17.2543 33.1229 17.3577 32.8736C17.4611 32.6243 17.6126 32.3979 17.8036 32.2073L18.7927 31.2182C19.5964 30.4145 20.8945 30.4145 21.6982 31.2182L31.0945 40.6145L47.3527 24.3564C48.1564 23.5527 49.4545 23.5527 50.2582 24.3564L51.3091 25.3455C52.1127 26.1491 52.1127 27.4473 51.3091 28.2509Z" fill="#65B85D"/>
</g>
<defs>
<clipPath id="clip0_211_1241">
<rect width="68" height="68" fill="white"/>
</clipPath>
</defs>
</svg>
